name C:\Users\u0101727\Documents\MyRepositories\upper-imu-dc\Results\main_tracking\Case_31\FLX01_linearAccelerations_bodyFrame.mot
datacolumns 4
datarows 70
range 3.51000000 4.20000000
endheader 
time	radius_imu_x	radius_imu_y	radius_imu_z	
          3.51000000	         -0.85018715	         -9.51403504	          1.96134042	
          3.52000000	         -0.94336250	         -9.50068193	          1.94451690	
          3.53000000	         -1.00159218	         -9.48150379	          1.95860504	
          3.54000000	         -1.02312429	         -9.45624770	          2.00368321	
          3.55000000	         -1.01078882	         -9.42585735	          2.07689786	
          3.56000000	         -0.97180513	         -9.39305404	          2.17275877	
          3.57000000	         -0.91668669	         -9.36232563	          2.28396124	
          3.58000000	         -0.85757804	         -9.33890486	          2.40245702	
          3.59000000	         -0.80612108	         -9.32691429	          2.52045786	
          3.60000000	         -0.77103626	         -9.32782641	          2.63114065	
          3.61000000	         -0.75614435	         -9.34033060	          2.72897801	
          3.62000000	         -0.75977000	         -9.36142226	          2.80978266	
          3.63000000	         -0.77575044	         -9.38758454	          2.87064229	
          3.64000000	         -0.79536001	         -9.41538017	          2.90988302	
          3.65000000	         -0.80954501	         -9.44179169	          2.92707139	
          3.66000000	         -0.81076779	         -9.46467897	          2.92288170	
          3.67000000	         -0.79419881	         -9.48282170	          2.89903815	
          3.68000000	         -0.75749620	         -9.49539431	          2.85808304	
          3.69000000	         -0.70008090	         -9.50111574	          2.80306875	
          3.70000000	         -0.62319388	         -9.49778776	          2.73749418	
          3.71000000	         -0.52932215	         -9.48328555	          2.66486785	
          3.72000000	         -0.42106534	         -9.45751359	          2.58817991	
          3.73000000	         -0.29989149	         -9.42390210	          2.50955466	
          3.74000000	         -0.16641907	         -9.38919348	          2.43054930	
          3.75000000	         -0.02254247	         -9.36167483	          2.35290166	
          3.76000000	          0.12614790	         -9.34881622	          2.27916119	
          3.77000000	          0.26988956	         -9.35482775	          2.21285095	
          3.78000000	          0.39745533	         -9.37847451	          2.15804745	
          3.79000000	          0.50057259	         -9.41219254	          2.11858921	
          3.80000000	          0.57681755	         -9.44374764	          2.09742136	
          3.81000000	          0.62933843	         -9.46029063	          2.09631074	
          3.82000000	          0.66413704	         -9.45281551	          2.11572058	
          3.83000000	          0.68645690	         -9.41868962	          2.15470450	
          3.84000000	          0.69820641	         -9.36133979	          2.21100574	
          3.85000000	          0.69800201	         -9.28798966	          2.28154329	
          3.86000000	          0.68338856	         -9.20708344	          2.36313468	
          3.87000000	          0.65316421	         -9.12647878	          2.45305751	
          3.88000000	          0.60861364	         -9.05249495	          2.54912186	
          3.89000000	          0.55397865	         -8.98945944	          2.64925919	
          3.90000000	          0.49625503	         -8.93975192	          2.75104357	
          3.91000000	          0.44350863	         -8.90481363	          2.85139747	
          3.92000000	          0.40192563	         -8.88638558	          2.94643807	
          3.93000000	          0.37333237	         -8.88616033	          3.03145595	
          3.94000000	          0.35483631	         -8.90328089	          3.10123127	
          3.95000000	          0.34037158	         -8.93196305	          3.15073828	
          3.96000000	          0.32290229	         -8.96191513	          3.17596746	
          3.97000000	          0.29680758	         -8.98137213	          3.17453422	
          3.98000000	          0.26008392	         -8.98049670	          3.14591946	
          3.99000000	          0.21524543	         -8.95352243	          3.09143421	
          4.00000000	          0.16826887	         -8.89929329	          3.01415963	
          4.01000000	          0.12632226	         -8.82070367	          2.91889671	
          4.02000000	          0.09553126	         -8.72385769	          2.81185020	
          4.03000000	          0.07936230	         -8.61716188	          2.70005374	
          4.04000000	          0.07723563	         -8.51002479	          2.59094472	
          4.05000000	          0.08287837	         -8.41132926	          2.49220040	
          4.06000000	          0.08317099	         -8.32824951	          2.41151488	
          4.07000000	          0.05908926	         -8.26559064	          2.35608478	
          4.08000000	         -0.01083784	         -8.22546683	          2.33188362	
          4.09000000	         -0.14568831	         -8.20711575	          2.34283195	
          4.10000000	         -0.35747208	         -8.20661626	          2.39005408	
          4.11000000	         -0.64785730	         -8.21641238	          2.47158427	
          4.12000000	         -1.00746757	         -8.22535640	          2.58267116	
          4.13000000	         -1.41869277	         -8.22065523	          2.71628533	
          4.14000000	         -1.86115881	         -8.19186912	          2.86348292	
          4.15000000	         -2.31687628	         -8.13488391	          3.01382536	
          4.16000000	         -2.77219017	         -8.05331190	          3.15622287	
          4.17000000	         -3.21578488	         -7.95653723	          3.28032913	
          4.18000000	         -3.63492914	         -7.85610504	          3.37819784	
          4.19000000	         -4.01363582	         -7.76309000	          3.44557815	
          4.20000000	         -4.33410099	         -7.68712655	          3.48250716	
